<svg width="118" height="101" viewBox="0 0 118 101" fill="none" xmlns="http://www.w3.org/2000/svg">
<path d="M114.151 18.0511H84.0773V3.7706C84.0773 1.68672 82.3517 0 80.2254 0H37.7772C35.6483 0 33.9252 1.68672 33.9252 3.7706V18.0511H3.85193C1.7231 18.0511 0 19.7378 0 21.8217V97.0929C0 99.1743 1.7231 100.864 3.85193 100.864H114.148C116.274 100.864 118 99.1743 118 97.0929V21.8217C118.003 19.7378 116.277 18.0511 114.151 18.0511ZM41.6291 7.5412H76.3735V18.0511H41.6291V7.5412ZM110.299 25.5923V55.6867H79.509C77.9014 48.5854 71.4302 43.2563 63.6981 43.2563H54.3045C46.5724 43.2563 40.0986 48.5879 38.4936 55.6867H7.70386V25.5923H110.299ZM63.6981 67.4359H54.3045C49.618 67.4359 45.8046 63.7055 45.8046 59.1155C45.8046 54.5254 49.618 50.795 54.3045 50.795H63.6981C68.3846 50.795 72.198 54.5254 72.198 59.1155C72.198 63.7055 68.3846 67.4359 63.6981 67.4359ZM7.70386 93.3223V63.2279H38.6708C40.5274 69.9848 46.8215 74.9771 54.3019 74.9771H63.6955C71.1759 74.9771 77.4674 69.9848 79.3266 63.2279H110.296V93.3223H7.70386Z" fill="white"/>
</svg>
