<svg width="101" height="122" viewBox="0 0 101 122" fill="none" xmlns="http://www.w3.org/2000/svg">
<path d="M88.1822 43.8887H88.092C86.1063 43.1751 83.9401 42.8183 81.6836 42.8183H75.2753H57.0432H51.4472C42.6019 42.8183 34.9299 48.6166 32.5832 56.9127L26.8067 73.6833H17.5101V45.8512H18.2321C23.8282 45.8512 28.3411 41.391 28.3411 35.9495V19.4465C28.3411 17.6624 26.8969 16.2351 25.0918 16.2351C23.2866 16.2351 21.8425 17.6624 21.8425 19.4465V35.9495C21.8425 37.912 20.2178 39.5177 18.1419 39.5177H17.4198V19.4465C17.4198 17.6624 15.9757 16.2351 14.1705 16.2351C12.3654 16.2351 10.9212 17.6624 10.9212 19.4465V39.4285H10.1992C8.21349 39.4285 6.49859 37.8228 6.49859 35.8603V19.4465C6.49859 17.6624 5.05446 16.2351 3.24929 16.2351C1.44413 16.2351 0 17.6624 0 19.4465V35.9495C0 41.391 4.51291 45.8512 10.1089 45.8512H10.831V74.4861C7.85246 75.8242 5.68627 78.768 5.68627 82.247C5.68627 85.726 7.7622 88.6698 10.831 90.0078V118.197C10.831 119.981 12.2751 121.408 14.0803 121.408C15.8854 121.408 17.3296 119.981 17.3296 118.197V90.7215H29.4242C34.7494 90.7215 39.4428 87.7777 41.8798 83.4066V118.197C41.8798 119.981 43.3239 121.408 45.1291 121.408C46.9342 121.408 48.3784 119.981 48.3784 118.197V64.4951V60.5701V49.5087C49.3712 49.3302 50.3641 49.1518 51.3569 49.1518H53.7036V60.3025C53.7036 62.0866 55.1477 63.5139 56.9529 63.5139H75.0948C76.9 63.5139 78.3441 62.0866 78.3441 60.3025V49.1518H81.5031C82.2252 49.1518 82.9473 49.241 83.6693 49.3302V104.281V118.107C83.6693 119.892 85.1134 121.319 86.9186 121.319C88.7238 121.319 90.1679 119.892 90.1679 118.107V112.398C90.89 112.577 91.612 112.666 92.3341 112.666C97.1178 112.666 100.999 108.83 100.999 104.191V61.819C101.089 53.6121 95.6737 46.4757 88.1822 43.8887ZM36.9156 78.8572C36.013 82.0686 32.9442 84.2095 29.6047 84.2095H14.5316C13.3582 84.2095 12.3654 83.2282 12.3654 82.0686C12.3654 80.9089 13.3582 79.9276 14.5316 79.9276H29.0631C30.417 79.9276 31.6806 79.0356 32.1319 77.7867L38.7208 58.8752C38.7208 58.786 38.7208 58.6968 38.811 58.6968C39.3526 56.5559 40.5259 54.6826 41.97 53.1661V60.5701V64.0491L36.9156 78.8572ZM71.9358 57.0911H60.2924V49.1518H71.9358V57.0911ZM94.6808 104.281C94.6808 105.44 93.688 106.422 92.5146 106.422C91.3413 106.422 90.3484 105.44 90.3484 104.281V52.3632C93.0562 54.6826 94.7711 58.0724 94.7711 61.819V104.281H94.6808Z" fill="#136225"/>
<path d="M35.923 22.3905H46.754C48.2884 31.4894 56.4117 38.4474 66.1595 38.4474C75.9074 38.4474 83.9404 31.4894 85.565 22.3905H95.7642C97.5694 22.3905 99.0135 20.9632 99.0135 19.1791C99.0135 17.395 97.5694 16.0569 95.7642 16.0569H85.4748C83.9404 6.958 75.8172 0 66.0693 0C56.3214 0 48.2884 6.958 46.6638 16.0569H35.8328C34.0276 16.0569 32.5835 17.4842 32.5835 19.2683C32.5835 21.0524 34.1179 22.3905 35.923 22.3905ZM66.0693 32.0246C59.9317 32.0246 54.787 27.9212 53.3429 22.3905H78.8859C77.4418 27.9212 72.2068 32.0246 66.0693 32.0246ZM66.0693 6.42277C72.2068 6.42277 77.3515 10.5262 78.7957 16.0569H53.3429C54.787 10.5262 59.9317 6.42277 66.0693 6.42277Z" fill="#136225"/>
</svg>
