<svg width="140" height="96" viewBox="0 0 140 96" fill="none" xmlns="http://www.w3.org/2000/svg">
<path d="M0 0V2.16198V64.8594V75.6693C5.79708e-05 76.2426 0.230545 76.7925 0.640768 77.198C1.05099 77.6034 1.60736 77.8312 2.1875 77.8312H13.9282C13.4367 79.1898 13.125 80.6343 13.125 82.1552C13.125 89.2941 19.0272 95.1271 26.25 95.1271C33.4728 95.1271 39.375 89.2941 39.375 82.1552C39.375 80.6343 39.0633 79.1898 38.5718 77.8312H97.0532C96.5617 79.1898 96.25 80.6343 96.25 82.1552C96.25 89.2941 102.152 95.1271 109.375 95.1271C116.598 95.1271 122.5 89.2941 122.5 82.1552C122.5 80.6343 122.188 79.1898 121.697 77.8312H137.812C138.393 77.8312 138.949 77.6034 139.359 77.198C139.769 76.7925 140 76.2426 140 75.6693V62.6974V51.8875C140 44.7387 134.108 38.9156 126.875 38.9156H122.5V34.5917V26.0535C122.5 16.5093 114.657 8.7577 105 8.7577H83.125V0H0ZM5.34722 5.28484H77.2759V59.6432H5.34722V56.0557L10.9717 56.2115C11.2615 56.2155 11.5493 56.1626 11.8183 56.0557C12.0873 55.9489 12.3322 55.7903 12.5386 55.5891C12.745 55.388 12.9089 55.1483 13.0208 54.884C13.1327 54.6196 13.1903 54.336 13.1903 54.0495C13.1903 53.763 13.1327 53.4793 13.0208 53.215C12.9089 52.9507 12.745 52.711 12.5386 52.5098C12.3322 52.3086 12.0873 52.15 11.8183 52.0432C11.5493 51.9364 11.2615 51.8834 10.9717 51.8875H5.34722V5.28484ZM83.125 14.3446H105C112.309 14.3446 116.998 18.8299 116.998 26.0535V34.2707V43.2396H126.875C131.76 43.2396 135.331 47.0594 135.331 51.8875H129.028C128.738 51.8834 128.451 51.9364 128.182 52.0432C127.913 52.15 127.668 52.3086 127.461 52.5098C127.255 52.711 127.091 52.9507 126.979 53.215C126.867 53.4793 126.81 53.763 126.81 54.0495C126.81 54.336 126.867 54.6196 126.979 54.884C127.091 55.1483 127.255 55.388 127.461 55.5891C127.668 55.7903 127.913 55.9489 128.182 56.0557C128.451 56.1626 128.738 56.2155 129.028 56.2115L135.331 56.6233V59.6432H83.125V14.3446ZM91.875 17.2958V38.7805H113.724L113.75 36.6439L113.776 34.2961V28.072C113.776 24.9777 112.716 22.1985 110.734 20.2601C108.752 18.3212 105.937 17.2958 102.812 17.2958H96.2756H91.875ZM96.25 21.6198H96.2756H102.812C105.005 21.6198 106.581 22.2809 107.657 23.3342C108.734 24.3875 109.401 25.916 109.401 28.072V34.2707V34.4565H96.25V21.6198ZM93.8403 43.2396C93.2602 43.2687 92.7155 43.5244 92.3261 43.9504C91.9367 44.3765 91.7344 44.938 91.7639 45.5113C91.7934 46.0847 92.0521 46.6231 92.4832 47.0079C92.9142 47.3928 93.4823 47.5927 94.0625 47.5635H98.4375C98.7274 47.5676 99.0152 47.5147 99.2842 47.4078C99.5531 47.301 99.798 47.1424 100.004 46.9412C100.211 46.7401 100.375 46.5004 100.487 46.236C100.599 45.9717 100.656 45.6881 100.656 45.4016C100.656 45.115 100.599 44.8314 100.487 44.5671C100.375 44.3027 100.211 44.063 100.004 43.8619C99.798 43.6607 99.5531 43.5021 99.2842 43.3953C99.0152 43.2885 98.7274 43.2355 98.4375 43.2396H94.0625C93.9885 43.2359 93.9143 43.2359 93.8403 43.2396ZM5.34722 64.8594H83.125H135.625V71.4129V73.5073H119.082C116.676 70.8724 113.23 69.1833 109.375 69.1833C105.52 69.1833 102.074 70.8724 99.668 73.5073H35.6182C33.2122 70.8724 30.105 69.1833 26.25 69.1833C22.395 69.1833 18.5708 70.5978 16.1648 73.2327H5.47034L5.34722 64.8594ZM26.25 73.5073C31.1084 73.5073 35 77.3534 35 82.1552C35 86.957 31.1084 90.8031 26.25 90.8031C21.3916 90.8031 17.5 86.957 17.5 82.1552C17.5 77.3534 21.3916 73.5073 26.25 73.5073ZM109.375 73.5073C114.233 73.5073 118.125 77.3534 118.125 82.1552C118.125 86.957 114.233 90.8031 109.375 90.8031C104.517 90.8031 100.625 86.957 100.625 82.1552C100.625 77.3534 104.517 73.5073 109.375 73.5073ZM26.25 79.9932C25.6698 79.9932 25.1134 80.221 24.7032 80.6264C24.293 81.0319 24.0625 81.5818 24.0625 82.1552C24.0625 82.7286 24.293 83.2785 24.7032 83.684C25.1134 84.0894 25.6698 84.3172 26.25 84.3172C26.8302 84.3172 27.3866 84.0894 27.7968 83.684C28.207 83.2785 28.4375 82.7286 28.4375 82.1552C28.4375 81.5818 28.207 81.0319 27.7968 80.6264C27.3866 80.221 26.8302 79.9932 26.25 79.9932ZM109.375 79.9932C108.795 79.9932 108.238 80.221 107.828 80.6264C107.418 81.0319 107.187 81.5818 107.187 82.1552C107.187 82.7286 107.418 83.2785 107.828 83.684C108.238 84.0894 108.795 84.3172 109.375 84.3172C109.955 84.3172 110.512 84.0894 110.922 83.684C111.332 83.2785 111.562 82.7286 111.562 82.1552C111.562 81.5818 111.332 81.0319 110.922 80.6264C110.512 80.221 109.955 79.9932 109.375 79.9932Z" fill="white"/>
</svg>
