<svg width="130" height="400" viewBox="0 0 130 400" fill="none" xmlns="http://www.w3.org/2000/svg">
<path d="M40.0927 161.262C54.1003 150.279 68.8917 140.31 84.3517 131.432C108.056 117.808 124.455 111.671 127.749 110.495C123.914 151.326 113.843 199.069 91.131 246.477L35.2936 268.519C35.2936 268.519 59.8437 277.645 71.7395 281.632C44.7698 324.581 5.82082 365.684 -49.9865 399.323C-43.2915 380.905 5.76303 246.331 40.0927 161.262ZM-37.2353 226.25C-35.021 230.991 -28.4406 244.857 -21.6188 257.077C-15.0359 268.882 -10.703 275.749 -9.1422 278.177C-29.828 333.262 -47.7031 382.349 -52.7404 396.221C-53.707 377.355 -55.9682 302.919 -37.2353 226.25ZM-18.3095 256.029C-26.6853 241.019 -34.6076 223.737 -34.6334 223.684L-35.9328 224.273C-31.3462 205.589 -25.4005 187.256 -18.142 169.418C19.6589 77.7606 100.439 15.3834 120.092 1.18682C109.814 16.2205 73.7484 71.2772 42.4752 147.529C27.7547 183.412 9.50852 230.929 -7.11222 275.091C-9.19294 271.782 -13.0122 265.521 -18.3095 256.029ZM45.1242 148.648C78.6701 67.123 117.67 9.95779 124.411 0.343226C126.271 10.7123 132.856 53.1821 127.809 108.972L127.362 107.659C127.312 107.679 109.546 113.667 82.7394 129.071C68.6371 137.187 55.0708 146.181 42.1225 155.997C43.1365 153.499 44.1429 151.04 45.1251 148.648L45.1242 148.648Z" fill="url(#paint0_radial)"/>
<defs>
<radialGradient id="paint0_radial" cx="0" cy="0" r="1" gradientUnits="userSpaceOnUse" gradientTransform="translate(62.5793 -12.5655) rotate(-15.7054) scale(253.92 251.394)">
<stop stop-color="#F7F7F7"/>
<stop offset="0.227" stop-color="#1D9A3A"/>
<stop offset="0.681" stop-color="#199536"/>
<stop offset="1" stop-color="#136225"/>
</radialGradient>
</defs>
</svg>
