<svg width="35" height="52" viewBox="0 0 35 52" fill="none" xmlns="http://www.w3.org/2000/svg">
<path d="M17.4167 0C7.91938 0 0 7.20747 0 17.4168C0 21.1219 1.13793 24.0049 2.70195 26.786L15.7839 50.0536C15.9453 50.3452 16.1819 50.5883 16.469 50.7576C16.7562 50.9268 17.0834 51.0161 17.4167 51.0161C17.75 51.0161 18.0773 50.9268 18.3644 50.7576C18.6515 50.5883 18.8881 50.3452 19.0495 50.0536L32.1315 26.786C33.6956 24.0049 34.8334 21.1218 34.8334 17.4168C34.8334 7.20747 26.914 0 17.4167 0ZM17.4167 3.73215C25.0961 3.73215 31.1013 9.07506 31.1013 17.4168C31.1013 20.3975 30.287 22.4319 28.8658 24.9588L17.4167 45.3302L5.96759 24.9588C4.54651 22.4319 3.73215 20.3974 3.73215 17.4168C3.73215 9.07506 9.73731 3.73215 17.4167 3.73215ZM17.4167 8.08633C12.2858 8.08633 8.08633 12.2858 8.08633 17.4168C8.08633 22.5476 12.2857 26.7471 17.4167 26.7471C22.5477 26.7471 26.7471 22.5476 26.7471 17.4168C26.7471 12.2858 22.5476 8.08633 17.4167 8.08633ZM17.4167 11.8185C20.5306 11.8185 23.0149 14.3028 23.0149 17.4168C23.0149 20.5305 20.5306 23.015 17.4167 23.015C14.3029 23.015 11.8185 20.5305 11.8185 17.4168C11.8185 14.3028 14.3028 11.8185 17.4167 11.8185Z" fill="black"/>
</svg>
