<svg width="50" height="41" viewBox="0 0 50 41" fill="none" xmlns="http://www.w3.org/2000/svg">
<path d="M43.5393 0H6.46067C2.89831 0 0 2.88384 0 6.42966V34.5703C0 38.1162 2.89831 41 6.46067 41H43.5393C47.1017 41 50 38.1162 50 34.5703V6.42966C50 2.88384 47.1017 0 43.5393 0ZM6.46067 3.91371H43.5393C44.9331 3.91371 46.0674 5.04197 46.0674 6.42966V8.8802L25 18.7813L3.93258 8.8802V6.42966C3.93258 5.04197 5.06685 3.91371 6.46067 3.91371ZM43.5393 37.0863H6.46067C5.06685 37.0863 3.93258 35.958 3.93258 34.5703V13.2088L25 23.1088L46.0674 13.2088V34.5703C46.0674 35.958 44.9331 37.0863 43.5393 37.0863Z" fill="black"/>
</svg>
