<svg width="39" height="45" viewBox="0 0 39 45" fill="none" xmlns="http://www.w3.org/2000/svg">
<path fill-rule="evenodd" clip-rule="evenodd" d="M36.5044 30.2284L33.7761 28.0975C39.0891 18.0115 31.9093 5.7947 20.5653 5.36853L20.1345 1.95918C34.494 2.10124 43.6842 17.7274 36.5044 30.2284ZM11.088 1.10685L14.965 7.78349C15.5394 8.77789 15.2522 10.0564 14.2471 10.6246L8.50325 13.8919C12.5239 20.5686 16.401 27.3873 20.4217 34.0639L26.0219 30.7966C27.0271 30.2284 28.3194 30.6546 28.8938 31.6489L32.7709 38.4676C33.3453 39.32 33.0581 40.5985 32.0529 41.1667L26.4527 44.434C16.2574 50.2583 -7.72305 9.34611 2.47223 3.5218L8.21605 0.254508C9.22122 -0.313717 10.5136 0.112452 11.088 1.10685ZM31.0478 25.9667L28.1758 23.8359C30.0426 18.7218 26.8835 13.1816 21.4268 12.3293L20.9961 8.77789C29.3246 9.48817 34.6376 18.4377 31.0478 25.9667Z" fill="black"/>
</svg>
